<svg width="355" height="282" viewBox="0 0 355 282" fill="none" xmlns="http://www.w3.org/2000/svg">
<path d="M381.157 6.88024C438.574 16.7181 486.41 43.6259 531.175 72.1602C575.064 100.135 618.161 130.477 638.323 170.801C658.408 210.971 652.927 254.839 643.67 297.148C634.436 339.352 618.049 380.514 584.812 415.376C550.294 451.583 505.777 483.287 450.45 499.818C394.724 516.468 331.835 519.674 273.764 508.311C218.081 497.416 176.606 465.626 132.923 437.688C90.317 410.438 43.4583 385.081 21.091 346.71C-1.70047 307.611 -4.07638 263.293 6.87765 221.455C17.6313 180.382 50.2177 145.893 82.6186 111.709C116.956 75.482 148.02 34.6442 201.868 15.736C256.985 -3.61771 321.775 -3.2944 381.157 6.88024Z" fill="#6842FF"/>
</svg>
