<svg width="652" height="516" viewBox="0 0 652 516" fill="none" xmlns="http://www.w3.org/2000/svg">
<path d="M271.22 508.931C213.804 499.093 165.968 472.185 121.202 443.651C77.3137 415.676 34.2166 385.334 14.0545 345.01C-6.03085 304.84 -0.549449 260.972 8.7073 218.664C17.9413 176.459 34.3285 135.298 67.5657 100.435C102.084 64.2285 146.601 32.5237 201.928 15.993C257.654 -0.656815 320.543 -3.86272 378.613 7.49998C434.297 18.3955 475.772 50.1852 519.454 78.1232C562.061 105.373 608.919 130.73 631.287 169.101C654.078 208.201 656.454 252.518 645.5 294.356C634.746 335.429 602.16 369.918 569.759 404.102C535.421 440.329 504.357 481.167 450.509 500.075C395.393 519.429 330.602 519.106 271.22 508.931Z" fill="#FF8A42"/>
</svg>
