<svg width="460" height="383" viewBox="0 0 460 383" fill="none" xmlns="http://www.w3.org/2000/svg">
<path d="M71.2483 382.677C23.6008 380.185 -3.72876 340.417 -40.0683 317.324C-71.5479 297.319 -99.3229 275.746 -129.811 254.907C-166.7 229.692 -226.286 216.548 -239.984 180.675C-253.41 145.513 -218.886 109.864 -197.798 76.8541C-179.256 47.8286 -148.155 25.5503 -123.901 -1.03606C-98.7778 -28.5763 -85.5287 -62.303 -51.31 -83.7253C-15.2796 -106.282 30.0127 -119.268 76.1296 -126.263C124.349 -133.577 175.63 -137.186 222.135 -125.201C268.527 -113.246 307.647 -87.97 337.461 -58.9165C365.623 -31.473 367.861 5.3019 387.989 36.422C408.892 68.7419 462.342 93.0573 458.899 128.842C455.389 165.332 392.445 182.465 370.779 215.296C349.941 246.872 370.69 293.062 335.201 316.28C299.648 339.54 240.787 318.392 195.957 329.669C150.111 341.201 119.518 385.202 71.2483 382.677Z" fill="#FF6842"/>
</svg>
