<svg width="652" height="160" viewBox="0 0 652 160" fill="none" xmlns="http://www.w3.org/2000/svg">
<path d="M270.843 152.146C213.426 142.308 165.59 115.4 120.825 86.8659C76.9362 58.8909 33.8392 28.549 13.677 -11.7749C-6.40837 -51.9453 -0.92698 -95.813 8.3298 -138.121C17.5638 -180.326 33.951 -221.487 67.1882 -256.35C101.706 -292.556 146.223 -324.261 201.55 -340.792C257.276 -357.442 320.165 -360.648 378.236 -349.285C433.919 -338.389 475.394 -306.6 519.077 -278.662C561.683 -251.412 608.542 -226.055 630.909 -187.683C653.701 -148.584 656.076 -104.267 645.122 -62.429C634.369 -21.3561 601.782 13.1334 569.381 47.317C535.044 83.5442 503.98 124.382 450.132 143.29C395.015 162.644 330.225 162.321 270.843 152.146Z" fill="#FF8A42"/>
</svg>
