<svg width="703" height="191" viewBox="0 0 703 191" fill="none" xmlns="http://www.w3.org/2000/svg">
<path d="M387.81 0.104379C435.457 2.59643 462.787 42.3641 499.126 65.4574C530.606 85.4622 558.381 107.035 588.869 127.875C625.758 153.089 685.344 166.233 699.042 202.106C712.468 237.268 677.944 272.918 656.856 305.927C638.314 334.953 607.213 357.231 582.959 383.817C557.836 411.358 544.587 445.084 510.368 466.507C474.338 489.063 429.045 502.049 382.929 509.044C334.709 516.358 283.428 519.967 236.923 507.983C190.531 496.027 151.411 470.751 121.597 441.698C93.4351 414.254 91.1975 377.479 71.0696 346.359C50.1658 314.04 -3.28399 289.724 0.158825 253.94C3.66962 217.449 66.6126 200.317 88.2791 167.486C109.117 135.909 88.3678 89.7189 123.857 66.5013C159.41 43.2413 218.271 64.3898 263.101 53.1128C308.947 41.5804 339.54 -2.42022 387.81 0.104379Z" fill="#4278FF"/>
</svg>
