<svg width="703" height="516" viewBox="0 0 703 516" fill="none" xmlns="http://www.w3.org/2000/svg">
<path d="M314.248 515.677C266.601 513.185 239.271 473.417 202.931 450.324C171.452 430.319 143.677 408.746 113.189 387.907C76.3001 362.692 16.7134 349.548 3.01583 313.675C-10.4104 278.513 24.1141 242.864 45.2017 209.854C63.744 180.829 94.8451 158.55 119.098 131.964C144.222 104.424 157.471 70.697 191.69 49.2747C227.72 26.7184 273.012 13.732 319.129 6.73708C367.348 -0.576758 418.63 -4.18558 465.135 7.79886C511.527 19.7544 550.647 45.0301 580.461 74.0835C608.623 101.527 610.86 138.302 630.988 169.422C651.892 201.742 705.342 226.057 701.899 261.842C698.388 298.332 635.445 315.465 613.779 348.296C592.94 379.872 613.69 426.062 578.201 449.28C542.648 472.54 483.787 451.392 438.957 462.669C393.111 474.201 362.518 518.202 314.248 515.677Z" fill="#FF6842"/>
</svg>
