<svg width="652" height="516" viewBox="0 0 652 516" fill="none" xmlns="http://www.w3.org/2000/svg">
<path d="M381.149 7.29383C438.566 17.1317 486.402 44.0395 531.168 72.5738C575.056 100.549 618.153 130.891 638.315 171.215C658.401 211.385 652.919 255.253 643.662 297.561C634.429 339.765 618.041 380.927 584.804 415.79C550.286 451.996 505.769 483.701 450.442 500.232C394.716 516.882 331.827 520.087 273.756 508.725C218.073 497.829 176.598 466.04 132.915 438.102C90.3091 410.852 43.4504 385.495 21.0831 347.123C-1.70837 308.024 -4.08429 263.707 6.86973 221.869C17.6234 180.796 50.2098 146.306 82.6107 112.123C116.949 75.8956 148.012 35.0578 201.86 16.1496C256.977 -3.20412 321.768 -2.8808 381.149 7.29383Z" fill="#6842FF"/>
</svg>
